<svg width="164" height="38" viewBox="0 0 164 38" fill="none" xmlns="http://www.w3.org/2000/svg">
<g filter="url(#filter0_dd_13001_399)">
<rect x="3.1" y="2.1" width="31.8" height="31.8" rx="7.9" fill="white"/>
<rect x="3.1" y="2.1" width="31.8" height="31.8" rx="7.9" fill="url(#paint0_linear_13001_399)"/>
<rect x="3.1" y="2.1" width="31.8" height="31.8" rx="7.9" stroke="#D0D5DD" stroke-width="0.2"/>
<path d="M18.3546 13.1828C22.7105 11.4504 27.4742 12.8185 29.6373 14.9133C30.106 15.3671 30.5041 15.8275 30.845 16.2852C31.0394 15.2107 31.0552 14.1405 30.8681 13.1055C30.1847 9.32649 26.6195 7.18561 23.4233 8.29149C20.2415 9.3924 19.0005 11.5321 19.0005 11.5321C19.0005 11.5321 17.7595 9.3924 14.5777 8.29149C11.3812 7.18561 7.81603 9.32672 7.1328 13.1055C6.62842 15.8944 7.58356 18.9392 9.61033 21.6298C10.0372 21.7732 10.4847 21.8809 10.9586 21.9431C13.7978 22.3163 14.8184 21.557 16.0178 21.0486C16.8142 20.7113 17.4134 21.0942 17.3843 21.3626C17.3392 21.7786 15.7693 22.4895 16.106 22.6388C17.4351 23.2285 19.0718 23.2334 20.3053 22.18C21.838 20.8712 22.4114 21.7659 22.4114 21.7659C22.4114 21.7659 21.6502 23.7076 19.3581 24.6717C17.4457 25.4761 15.4419 25.6743 13.6107 25.4683C15.19 26.5846 17.0035 27.5204 19.0005 28.1883C24.7099 26.2784 28.9276 22.1871 30.4145 17.9096C29.4072 16.9157 28.1716 16.2996 26.6988 16.0763C23.8674 15.6471 22.8322 16.3863 21.6228 16.8708C20.8198 17.1926 20.2285 16.7978 20.263 16.5299C20.3161 16.1148 21.8999 15.4351 21.5661 15.279C20.249 14.6633 18.6125 14.626 17.3585 15.6549C15.8003 16.9332 15.2446 16.0274 15.2446 16.0274C15.2446 16.0274 16.0438 14.1015 18.3546 13.1828ZM17.2709 18.5052H18.3709V17.4052H19.6296V18.5052H20.7296V19.7639H19.6296V20.8639H18.3709V19.7639H17.2709V18.5052Z" fill="url(#paint1_linear_13001_399)"/>
<path d="M17.2709 18.5052H18.3709V17.4052H19.6296V18.5052H20.7295V19.7639H19.6378C21.2597 20.5834 24.2383 21.8027 27.8177 22.3451C28.9956 20.9517 29.8813 19.4428 30.4143 17.9096C29.4069 16.9157 28.1713 16.2996 26.6986 16.0763C23.8672 15.647 22.8319 16.3863 21.6226 16.8708C20.8196 17.1926 20.2282 16.7978 20.2627 16.5299C20.3159 16.1148 21.8997 15.4351 21.5659 15.279C20.2488 14.6633 18.6123 14.626 17.3583 15.6548C15.8 16.9332 15.2443 16.0274 15.2443 16.0274C15.2443 16.0274 16.0438 14.1013 18.3543 13.1823C22.7102 11.4499 27.4739 12.818 29.637 14.9128C30.1057 15.3666 30.5038 15.8271 30.8447 16.2847C31.0392 15.2102 31.055 14.14 30.8679 13.105C30.1844 9.326 26.6192 7.18512 23.423 8.291C20.2412 9.39191 19.0002 11.5316 19.0002 11.5316C19.0002 11.5316 17.7592 9.39191 14.5774 8.291C12.7519 7.65927 10.8067 8.0883 9.34619 9.27521C10.0323 10.7442 10.836 12.1168 13.1254 14.8773C14.9868 17.1222 17.2709 18.5052 17.2709 18.5052Z" fill="url(#paint2_linear_13001_399)"/>
<path opacity="0.31" d="M27.277 9.64954C24.2712 8.13944 21.169 10.4892 20.1851 11.7299C21.882 11.3725 23.3668 11.1892 25.2457 11.5839C28.0252 12.1679 29.0654 13.1715 30.3064 14.6542C30.0871 11.9069 28.3519 10.1896 27.277 9.64954Z" fill="url(#paint3_linear_13001_399)"/>
</g>
<path d="M53.112 28.288C51.976 28.288 50.92 28.08 49.944 27.664C48.984 27.248 48.152 26.672 47.448 25.936C46.76 25.184 46.256 24.312 45.936 23.32L48.648 22.144C49.08 23.168 49.704 23.976 50.52 24.568C51.336 25.144 52.256 25.432 53.28 25.432C53.856 25.432 54.352 25.344 54.768 25.168C55.2 24.976 55.528 24.72 55.752 24.4C55.992 24.08 56.112 23.696 56.112 23.248C56.112 22.72 55.952 22.288 55.632 21.952C55.328 21.6 54.864 21.328 54.24 21.136L50.808 20.032C49.416 19.6 48.368 18.952 47.664 18.088C46.96 17.224 46.608 16.208 46.608 15.04C46.608 14.016 46.856 13.112 47.352 12.328C47.864 11.544 48.568 10.936 49.464 10.504C50.376 10.056 51.416 9.832 52.584 9.832C53.656 9.832 54.64 10.024 55.536 10.408C56.432 10.776 57.2 11.296 57.84 11.968C58.496 12.624 58.984 13.4 59.304 14.296L56.616 15.496C56.264 14.6 55.736 13.912 55.032 13.432C54.328 12.936 53.512 12.688 52.584 12.688C52.04 12.688 51.56 12.784 51.144 12.976C50.728 13.152 50.4 13.408 50.16 13.744C49.936 14.064 49.824 14.448 49.824 14.896C49.824 15.392 49.984 15.832 50.304 16.216C50.624 16.584 51.112 16.872 51.768 17.08L55.056 18.112C56.48 18.576 57.544 19.216 58.248 20.032C58.968 20.848 59.328 21.856 59.328 23.056C59.328 24.08 59.064 24.984 58.536 25.768C58.008 26.552 57.28 27.168 56.352 27.616C55.424 28.064 54.344 28.288 53.112 28.288ZM68.1951 28.288C66.8511 28.288 65.6751 27.984 64.6671 27.376C63.6591 26.768 62.8751 25.944 62.3151 24.904C61.7551 23.864 61.4751 22.712 61.4751 21.448C61.4751 20.136 61.7551 18.976 62.3151 17.968C62.8911 16.944 63.6671 16.136 64.6431 15.544C65.6351 14.952 66.7391 14.656 67.9551 14.656C68.9791 14.656 69.8751 14.824 70.6431 15.16C71.4271 15.496 72.0911 15.96 72.6351 16.552C73.1791 17.144 73.5951 17.824 73.8831 18.592C74.1711 19.344 74.3151 20.16 74.3151 21.04C74.3151 21.264 74.2991 21.496 74.2671 21.736C74.2511 21.976 74.2111 22.184 74.1471 22.36H64.0671V19.96H72.3711L70.8831 21.088C71.0271 20.352 70.9871 19.696 70.7631 19.12C70.5551 18.544 70.2031 18.088 69.7071 17.752C69.2271 17.416 68.6431 17.248 67.9551 17.248C67.2991 17.248 66.7151 17.416 66.2031 17.752C65.6911 18.072 65.2991 18.552 65.0271 19.192C64.7711 19.816 64.6751 20.576 64.7391 21.472C64.6751 22.272 64.7791 22.984 65.0511 23.608C65.3391 24.216 65.7551 24.688 66.2991 25.024C66.8591 25.36 67.4991 25.528 68.2191 25.528C68.9391 25.528 69.5471 25.376 70.0431 25.072C70.5551 24.768 70.9551 24.36 71.2431 23.848L73.7871 25.096C73.5311 25.72 73.1311 26.272 72.5871 26.752C72.0431 27.232 71.3951 27.608 70.6431 27.88C69.9071 28.152 69.0911 28.288 68.1951 28.288ZM76.6984 28V14.944H79.6504V17.848L79.4104 17.416C79.7144 16.44 80.1864 15.76 80.8264 15.376C81.4824 14.992 82.2664 14.8 83.1784 14.8H83.9464V17.584H82.8184C81.9224 17.584 81.2024 17.864 80.6584 18.424C80.1144 18.968 79.8424 19.736 79.8424 20.728V28H76.6984ZM91.8669 28.288C90.5229 28.288 89.3469 27.984 88.3389 27.376C87.3309 26.768 86.5469 25.944 85.9869 24.904C85.4269 23.864 85.1469 22.712 85.1469 21.448C85.1469 20.136 85.4269 18.976 85.9869 17.968C86.5629 16.944 87.3389 16.136 88.3149 15.544C89.3069 14.952 90.4109 14.656 91.6269 14.656C92.6509 14.656 93.5469 14.824 94.3149 15.16C95.0989 15.496 95.7629 15.96 96.3069 16.552C96.8509 17.144 97.2669 17.824 97.5549 18.592C97.8429 19.344 97.9869 20.16 97.9869 21.04C97.9869 21.264 97.9709 21.496 97.9389 21.736C97.9229 21.976 97.8829 22.184 97.8189 22.36H87.7389V19.96H96.0429L94.5549 21.088C94.6989 20.352 94.6589 19.696 94.4349 19.12C94.2269 18.544 93.8749 18.088 93.3789 17.752C92.8989 17.416 92.3149 17.248 91.6269 17.248C90.9709 17.248 90.3869 17.416 89.8749 17.752C89.3629 18.072 88.9709 18.552 88.6989 19.192C88.4429 19.816 88.3469 20.576 88.4109 21.472C88.3469 22.272 88.4509 22.984 88.7229 23.608C89.0109 24.216 89.4269 24.688 89.9709 25.024C90.5309 25.36 91.1709 25.528 91.8909 25.528C92.6109 25.528 93.2189 25.376 93.7149 25.072C94.2269 24.768 94.6269 24.36 94.9149 23.848L97.4589 25.096C97.2029 25.72 96.8029 26.272 96.2589 26.752C95.7149 27.232 95.0669 27.608 94.3149 27.88C93.5789 28.152 92.7629 28.288 91.8669 28.288ZM100.37 28V14.944H103.322V17.512L103.082 17.056C103.386 16.272 103.882 15.68 104.57 15.28C105.274 14.864 106.09 14.656 107.018 14.656C107.978 14.656 108.826 14.864 109.562 15.28C110.314 15.696 110.898 16.28 111.314 17.032C111.73 17.768 111.938 18.624 111.938 19.6V28H108.794V20.344C108.794 19.768 108.682 19.272 108.458 18.856C108.234 18.44 107.922 18.12 107.522 17.896C107.138 17.656 106.682 17.536 106.154 17.536C105.642 17.536 105.186 17.656 104.786 17.896C104.386 18.12 104.074 18.44 103.85 18.856C103.626 19.272 103.514 19.768 103.514 20.344V28H100.37ZM114.597 28V14.944H117.741V28H114.597ZM114.597 13.48V10.12H117.741V13.48H114.597ZM126.932 28.288C125.636 28.288 124.468 27.992 123.428 27.4C122.404 26.792 121.596 25.976 121.004 24.952C120.412 23.912 120.116 22.744 120.116 21.448C120.116 20.152 120.412 18.992 121.004 17.968C121.596 16.944 122.404 16.136 123.428 15.544C124.468 14.952 125.636 14.656 126.932 14.656C127.86 14.656 128.724 14.824 129.524 15.16C130.324 15.48 131.012 15.928 131.588 16.504C132.18 17.064 132.604 17.736 132.86 18.52L130.1 19.72C129.86 19.064 129.452 18.536 128.876 18.136C128.316 17.736 127.668 17.536 126.932 17.536C126.244 17.536 125.628 17.704 125.084 18.04C124.556 18.376 124.14 18.84 123.836 19.432C123.532 20.024 123.38 20.704 123.38 21.472C123.38 22.24 123.532 22.92 123.836 23.512C124.14 24.104 124.556 24.568 125.084 24.904C125.628 25.24 126.244 25.408 126.932 25.408C127.684 25.408 128.34 25.208 128.9 24.808C129.46 24.408 129.86 23.872 130.1 23.2L132.86 24.448C132.604 25.184 132.188 25.848 131.612 26.44C131.036 27.016 130.348 27.472 129.548 27.808C128.748 28.128 127.876 28.288 126.932 28.288ZM139.158 28.288C138.246 28.288 137.454 28.136 136.782 27.832C136.11 27.528 135.59 27.096 135.222 26.536C134.854 25.96 134.67 25.296 134.67 24.544C134.67 23.824 134.83 23.184 135.15 22.624C135.47 22.048 135.966 21.568 136.638 21.184C137.31 20.8 138.158 20.528 139.182 20.368L143.454 19.672V22.072L139.782 22.696C139.158 22.808 138.694 23.008 138.39 23.296C138.086 23.584 137.934 23.96 137.934 24.424C137.934 24.872 138.102 25.232 138.438 25.504C138.79 25.76 139.222 25.888 139.734 25.888C140.39 25.888 140.966 25.752 141.462 25.48C141.974 25.192 142.366 24.8 142.638 24.304C142.926 23.808 143.07 23.264 143.07 22.672V19.312C143.07 18.752 142.846 18.288 142.398 17.92C141.966 17.536 141.39 17.344 140.67 17.344C139.998 17.344 139.398 17.528 138.87 17.896C138.358 18.248 137.982 18.72 137.742 19.312L135.174 18.064C135.43 17.376 135.83 16.784 136.374 16.288C136.934 15.776 137.59 15.376 138.342 15.088C139.094 14.8 139.91 14.656 140.79 14.656C141.862 14.656 142.806 14.856 143.622 15.256C144.438 15.64 145.07 16.184 145.518 16.888C145.982 17.576 146.214 18.384 146.214 19.312V28H143.238V25.768L143.91 25.72C143.574 26.28 143.174 26.752 142.71 27.136C142.246 27.504 141.718 27.792 141.126 28C140.534 28.192 139.878 28.288 139.158 28.288Z" fill="white"/>
<defs>
<filter id="filter0_dd_13001_399" x="0" y="0" width="38" height="38" filterUnits="userSpaceOnUse" color-interpolation-filters="sRGB">
<feFlood flood-opacity="0" result="BackgroundImageFix"/>
<feColorMatrix in="SourceAlpha" type="matrix" values="0 0 0 0 0 0 0 0 0 0 0 0 0 0 0 0 0 0 127 0" result="hardAlpha"/>
<feOffset dy="1"/>
<feGaussianBlur stdDeviation="1"/>
<feColorMatrix type="matrix" values="0 0 0 0 0.0627451 0 0 0 0 0.0941176 0 0 0 0 0.156863 0 0 0 0.06 0"/>
<feBlend mode="normal" in2="BackgroundImageFix" result="effect1_dropShadow_13001_399"/>
<feColorMatrix in="SourceAlpha" type="matrix" values="0 0 0 0 0 0 0 0 0 0 0 0 0 0 0 0 0 0 127 0" result="hardAlpha"/>
<feOffset dy="1"/>
<feGaussianBlur stdDeviation="1.5"/>
<feColorMatrix type="matrix" values="0 0 0 0 0.0627451 0 0 0 0 0.0941176 0 0 0 0 0.156863 0 0 0 0.1 0"/>
<feBlend mode="normal" in2="effect1_dropShadow_13001_399" result="effect2_dropShadow_13001_399"/>
<feBlend mode="normal" in="SourceGraphic" in2="effect2_dropShadow_13001_399" result="shape"/>
</filter>
<linearGradient id="paint0_linear_13001_399" x1="19" y1="2" x2="19" y2="34" gradientUnits="userSpaceOnUse">
<stop stop-color="white"/>
<stop offset="1" stop-color="#D0D5DD"/>
</linearGradient>
<linearGradient id="paint1_linear_13001_399" x1="10.1989" y1="24.2137" x2="27.8347" y2="6.57791" gradientUnits="userSpaceOnUse">
<stop stop-color="#0076C1"/>
<stop offset="0.0737" stop-color="#0B82C6"/>
<stop offset="0.2766" stop-color="#269ED3"/>
<stop offset="0.4546" stop-color="#36AFDA"/>
<stop offset="0.587" stop-color="#3CB5DD"/>
</linearGradient>
<linearGradient id="paint2_linear_13001_399" x1="10.1388" y1="24.2537" x2="27.8274" y2="6.56509" gradientUnits="userSpaceOnUse">
<stop stop-color="#00A482"/>
<stop offset="1" stop-color="#79DD83"/>
</linearGradient>
<linearGradient id="paint3_linear_13001_399" x1="24.8608" y1="13.5073" x2="28.5288" y2="10.1132" gradientUnits="userSpaceOnUse">
<stop stop-color="#00A482"/>
<stop offset="1" stop-color="#79DD83"/>
</linearGradient>
</defs>
</svg>
